# xmcd CD database file
#
# Track frame offsets:
#	150
#	22092
#	40247
#
# Disc length: 790 seconds
#
# Revision: 0
# Processed by: cddbd v1.5.1PL0 Copyright (c) Steve Scherf et al.
# Submitted via: CDex 1.51
#
DISCID=1f031403
DTITLE=平松愛理 - 愛情レストラン
DYEAR=2001
DGENRE=JPop
TTITLE0=素愛情レストラン
TTITLE1=恋愛の光と影
TTITLE2=Bran-new Brand
EXTD=YEAR: 2001
EXTT0=
EXTT1=
EXTT2=
PLAYORDER=
